<?xml version="1.0" standalone="no"?>
<!DOCTYPE svg PUBLIC "-//W3C//DTD SVG 20010904//EN"
 "http://www.w3.org/TR/2001/REC-SVG-20010904/DTD/svg10.dtd">
<svg version="1.0" xmlns="http://www.w3.org/2000/svg"
 width="143.000000pt" height="122.000000pt" viewBox="0 0 143.000000 122.000000"
 preserveAspectRatio="xMidYMid meet">

<g transform="translate(0.000000,122.000000) scale(0.100000,-0.100000)"
fill="#000000" stroke="none">
<path d="M560 1021 c-150 -48 -252 -148 -285 -279 -17 -66 -15 -106 11 -196
20 -71 18 -176 -5 -236 -18 -46 -18 -50 -3 -46 9 3 31 8 47 12 17 3 59 20 94
36 l63 30 56 -21 c127 -49 303 -34 418 35 79 48 116 85 156 158 30 56 33 68
33 151 0 112 -23 165 -105 245 -93 91 -195 130 -340 129 -53 0 -106 -7 -140
-18z"/>
<path d="M1191 585 c-1 -11 -14 -48 -31 -83 -59 -125 -199 -226 -350 -253
l-72 -13 35 -17 c71 -37 226 -42 287 -9 14 7 33 3 72 -15 29 -14 68 -25 86
-25 32 0 32 0 18 27 -24 48 -28 104 -11 166 21 81 19 134 -9 192 -16 32 -25
43 -25 30z"/>
</g>
</svg>
